<?xml version="1.0" encoding="UTF-8" standalone="no"?>
<!DOCTYPE svg PUBLIC "-//W3C//DTD SVG 1.1//EN" "http://www.w3.org/Graphics/SVG/1.1/DTD/svg11.dtd">
<svg width="100%" height="100%" viewBox="0 0 16 16" version="1.1" xmlns="http://www.w3.org/2000/svg" xmlns:xlink="http://www.w3.org/1999/xlink" xml:space="preserve" style="fill-rule:evenodd;clip-rule:evenodd;stroke-linejoin:round;stroke-miterlimit:1.41421;">
    <path d="M8,2.42L7.283,1.683C6.153,0.522 4.04,0.906 3.273,2.403C2.923,3.088 2.822,4.11 3.509,5.465C4.16,6.753 5.52,8.32 8,10.042C10.479,8.319 11.839,6.752 12.491,5.465C13.178,4.11 13.078,3.088 12.727,2.404C11.96,0.906 9.847,0.522 8.717,1.683L8,2.42ZM7.51,10.92C-3.27,3.48 4.51,-2.235 7.869,0.857C7.914,0.898 7.958,0.941 8.001,0.986C8.044,0.941 8.088,0.898 8.133,0.857C11.493,-2.235 19.27,3.481 8.49,10.92L8.725,11.388C8.742,11.423 8.751,11.461 8.751,11.5C8.751,11.637 8.638,11.75 8.501,11.75C8.406,11.75 8.319,11.697 8.277,11.612L8.269,11.595C8.277,11.705 8.289,11.797 8.306,11.885C8.36,12.155 8.467,12.373 8.725,12.888C9.013,13.466 8.96,14.038 8.801,14.517C8.644,14.986 8.379,15.384 8.213,15.632L8.209,15.639C8.163,15.708 8.084,15.75 8.001,15.75C7.864,15.75 7.751,15.637 7.751,15.5C7.751,15.451 7.766,15.402 7.793,15.361C7.961,15.109 8.193,14.761 8.326,14.358C8.459,13.962 8.489,13.534 8.277,13.112L8.264,13.084C8.024,12.604 7.884,12.326 7.816,11.982C7.788,11.833 7.771,11.683 7.764,11.532L7.724,11.612C7.682,11.697 7.595,11.752 7.5,11.752C7.362,11.752 7.25,11.639 7.25,11.502C7.25,11.462 7.259,11.423 7.277,11.388L7.512,10.92L7.51,10.92ZM6.013,2.06C5.364,1.88 4.53,2.143 4.163,2.858C4.032,3.116 3.918,3.547 4.083,4.193C4.146,4.437 4.497,4.391 4.57,4.15C4.78,3.453 5.197,2.703 5.929,2.458C6.146,2.385 6.233,2.121 6.013,2.06L6.013,2.06Z" style="fill:rgb(0,231,255);"/>
</svg>
